# xmcd
#
# Track frame offsets: 
#        150
#        9077
#        18590
#        27757
#        30162
#        34902
#        44200
#        55092
#        64045
#        70027
#        77277
#        89962
#        97302
#        101315
#        111652
#        115767
#        127215
#        133375
#        141505
#        145737
#        151175
#        156717
#        161270
#        171980
#        178667
#
# Disc length: 2514 seconds
#
# Revision: 0
# Processed by: cddbd v1.5.2PL0 Copyright (c) Steve Scherf et al.
# Submitted via: ExactAudioCopy v0.99pb3
#
DISCID=6309d019
DTITLE=[兒歌] - 兒歌童謠快樂唱 經典兒歌2
DYEAR=2001
DGENRE=(40)Vocal
TTITLE0=01 歡笑樂園開心地
TTITLE1=02 飄零燕
TTITLE2=03 叮噹
TTITLE3=04 有隻雀仔跌落水
TTITLE4=05 我是一個大蘋果
TTITLE5=06 小小姑娘
TTITLE6=07 小星星
TTITLE7=08 叢林望過去
TTITLE8=09 何家小雞何家猜
TTITLE9=10 在森林和原野
TTITLE10=11 IT'S A SMALL WORLD
TTITLE11=12 乙水乙水轉
TTITLE12=13 花狗BINGO
TTITLE13=14 小飛俠PETER PAN
TTITLE14=15 唐老伯有個小農場
TTITLE15=16 排排坐
TTITLE16=17 青蛙媽媽
TTITLE17=18 一枝竹仔
TTITLE18=19 打開蚊帳
TTITLE19=20 小蜜蜂
TTITLE20=21 月光光
TTITLE21=22 當我們同在一起
TTITLE22=23 青春舞曲 (國)
TTITLE23=24 鳳陽花鼓 (國)
TTITLE24=25 莫忘我 (AULD LANG SYNE)
EXTD=
EXTT0=
EXTT1=
EXTT2=
EXTT3=
EXTT4=
EXTT5=
EXTT6=
EXTT7=
EXTT8=
EXTT9=
EXTT10=
EXTT11=
EXTT12=
EXTT13=
EXTT14=
EXTT15=
EXTT16=
EXTT17=
EXTT18=
EXTT19=
EXTT20=
EXTT21=
EXTT22=
EXTT23=
EXTT24=
PLAYORDER=
